<svg width="24" height="20" viewBox="0 0 24 20" fill="none" xmlns="http://www.w3.org/2000/svg">
<path d="M21 19H14V17H21V3H3V6H1V3C1 1.89543 1.89543 1 3 1H21C22.1046 1 23 1.89543 23 3V17C23 18.1046 22.1046 19 21 19ZM12 19H10C10.005 16.6124 9.05472 14.3219 7.361 12.639C5.67821 10.9451 3.38769 9.99482 1 10V7.99996C3.91792 7.99224 6.71779 9.15165 8.776 11.22C10.847 13.2784 12.008 16.0801 12 19ZM8.00003 19H6C6.00273 17.6735 5.47487 16.401 4.534 15.466C3.59908 14.5249 2.32652 13.9971 1 14V12C2.85776 11.9944 4.64056 12.7322 5.951 14.049C7.26773 15.3595 8.00554 17.1423 8.00003 19ZM4 19H1V16C2.65685 16 4 17.3431 4 19Z" stroke="black"/>
</svg>
